<svg width="40" height="48" viewBox="0 0 40 48" fill="none" xmlns="http://www.w3.org/2000/svg">
<path fill-rule="evenodd" clip-rule="evenodd" d="M10.5462 16.6948L11.5512 31.0388C11.6245 32.1428 12.3762 32.9708 13.2945 32.9708H13.3012H31.4862H31.4895C32.3578 32.9708 33.0995 32.1948 33.2228 31.1648L34.8062 18.0468C34.8428 17.7348 34.7778 17.4228 34.6195 17.1708C34.4628 16.9168 34.2328 16.7528 33.9728 16.7088C33.6245 16.7248 19.1695 16.7008 10.5462 16.6948ZM13.2912 35.9708C11.0962 35.9708 9.23782 33.9148 9.05949 31.2848L7.53282 9.49679L5.02115 8.97679C4.33949 8.83279 3.88449 8.05879 4.00115 7.24079C4.12115 6.42279 4.77949 5.89079 5.44615 6.01879L8.91282 6.73879C9.47115 6.85679 9.89615 7.41279 9.94449 8.09279L10.3362 13.6948C34.1295 13.7068 34.2062 13.7208 34.3212 13.7368C35.2495 13.8988 36.0662 14.4808 36.6228 15.3768C37.1795 16.2708 37.4128 17.3728 37.2795 18.4768L35.6978 31.5928C35.3995 34.0888 33.5928 35.9708 31.4928 35.9708H31.4845H13.3045H13.2912Z" fill="white"/>
<path fill-rule="evenodd" clip-rule="evenodd" d="M12.5743 41.4038C13.076 41.4038 13.481 41.8898 13.481 42.4918C13.481 43.0938 13.076 43.5818 12.5743 43.5818C12.071 43.5818 11.666 43.0938 11.666 42.4918C11.666 41.8898 12.071 41.4038 12.5743 41.4038Z" fill="white"/>
<mask id="mask0_117_7970" style="mask-type:luminance" maskUnits="userSpaceOnUse" x="11" y="41" width="3" height="3">
<path fill-rule="evenodd" clip-rule="evenodd" d="M11.665 42.491C11.665 43.095 12.07 43.583 12.575 43.583C13.0767 43.583 13.4817 43.095 13.4817 42.491C13.4817 41.889 13.0767 41.403 12.575 41.403C12.07 41.403 11.665 41.889 11.665 42.491Z" fill="white"/>
</mask>
<g mask="url(#mask0_117_7970)">
<path fill-rule="evenodd" clip-rule="evenodd" d="M3.3335 53.581H21.8152V31.403H3.3335V53.581Z" fill="white"/>
</g>
<path fill-rule="evenodd" clip-rule="evenodd" d="M12.5727 42.0816C12.3843 42.0816 12.231 42.2656 12.231 42.4916C12.231 42.9456 12.916 42.9456 12.916 42.4916C12.916 42.2656 12.761 42.0816 12.5727 42.0816ZM12.5727 45.0816C11.3827 45.0816 10.416 43.9196 10.416 42.4916C10.416 41.0636 11.3827 39.9036 12.5727 39.9036C13.7627 39.9036 14.731 41.0636 14.731 42.4916C14.731 43.9196 13.7627 45.0816 12.5727 45.0816Z" fill="white"/>
<path fill-rule="evenodd" clip-rule="evenodd" d="M31.3746 41.4038C31.8763 41.4038 32.283 41.8898 32.283 42.4918C32.283 43.0938 31.8763 43.5818 31.3746 43.5818C30.8713 43.5818 30.4663 43.0938 30.4663 42.4918C30.4663 41.8898 30.8713 41.4038 31.3746 41.4038Z" fill="white"/>
<mask id="mask1_117_7970" style="mask-type:luminance" maskUnits="userSpaceOnUse" x="30" y="41" width="3" height="3">
<path fill-rule="evenodd" clip-rule="evenodd" d="M30.4668 42.491C30.4668 43.095 30.8718 43.583 31.3751 43.583C31.8751 43.583 32.2835 43.095 32.2835 42.491C32.2835 41.889 31.8751 41.403 31.3751 41.403C30.8718 41.403 30.4668 41.889 30.4668 42.491Z" fill="white"/>
</mask>
<g mask="url(#mask1_117_7970)">
<path fill-rule="evenodd" clip-rule="evenodd" d="M22.1333 53.581H40.6166V31.403H22.1333V53.581Z" fill="white"/>
</g>
<path fill-rule="evenodd" clip-rule="evenodd" d="M31.373 42.0816C31.1863 42.0816 31.033 42.2656 31.033 42.4916C31.0346 42.9496 31.718 42.9456 31.7163 42.4916C31.7163 42.2656 31.5613 42.0816 31.373 42.0816ZM31.373 45.0816C30.183 45.0816 29.2163 43.9196 29.2163 42.4916C29.2163 41.0636 30.183 39.9036 31.373 39.9036C32.5646 39.9036 33.533 41.0636 33.533 42.4916C33.533 43.9196 32.5646 45.0816 31.373 45.0816Z" fill="white"/>
</svg>
