<svg width="16" height="17" viewBox="0 0 16 17" fill="none" xmlns="http://www.w3.org/2000/svg">
<path fill-rule="evenodd" clip-rule="evenodd" d="M7.8335 10.9403C7.5575 10.9403 7.3335 10.7163 7.3335 10.4403V5.55563C7.3335 5.27963 7.5575 5.05563 7.8335 5.05563C8.1095 5.05563 8.3335 5.27963 8.3335 5.55563V10.4403C8.3335 10.7163 8.1095 10.9403 7.8335 10.9403" fill="black"/>
<path fill-rule="evenodd" clip-rule="evenodd" d="M10.2778 8.49756H5.38916C5.11249 8.49756 4.88916 8.27356 4.88916 7.99756C4.88916 7.72156 5.11249 7.49756 5.38916 7.49756H10.2778C10.5538 7.49756 10.7778 7.72156 10.7778 7.99756C10.7778 8.27356 10.5538 8.49756 10.2778 8.49756" fill="black"/>
<path fill-rule="evenodd" clip-rule="evenodd" d="M4.70941 1.83743C2.86141 1.83743 1.66675 3.1021 1.66675 5.06077V10.9474C1.66675 12.9061 2.86141 14.1708 4.70941 14.1708H10.9574C12.8061 14.1708 14.0001 12.9061 14.0001 10.9474V5.06077C14.0001 3.1021 12.8061 1.83743 10.9574 1.83743H4.70941ZM10.9574 15.1708H4.70941C2.29141 15.1708 0.666748 13.4734 0.666748 10.9474V5.06077C0.666748 2.53477 2.29141 0.837433 4.70941 0.837433H10.9574C13.3754 0.837433 15.0001 2.53477 15.0001 5.06077V10.9474C15.0001 13.4734 13.3754 15.1708 10.9574 15.1708V15.1708Z" fill="black"/>
</svg>
